<?xml version="1.0" encoding="UTF-8" standalone="no"?>
<!-- Created with Inkscape (http://www.inkscape.org/) -->

<svg
   xmlns:dc="http://purl.org/dc/elements/1.1/"
   xmlns:cc="http://creativecommons.org/ns#"
   xmlns:rdf="http://www.w3.org/1999/02/22-rdf-syntax-ns#"
   xmlns:svg="http://www.w3.org/2000/svg"
   xmlns="http://www.w3.org/2000/svg"
   xmlns:xlink="http://www.w3.org/1999/xlink"
   xmlns:sodipodi="http://sodipodi.sourceforge.net/DTD/sodipodi-0.dtd"
   xmlns:inkscape="http://www.inkscape.org/namespaces/inkscape"
   id="svg2"
   version="1.1"
   inkscape:version="0.48.3.1 r9886"
   width="166.535"
   height="166.53999"
   xml:space="preserve"
   sodipodi:docname="FreedomDefined-fullcircle_LAYERED.svg"
   style="display:inline"><metadata
   id="metadata8"><rdf:RDF><cc:Work
       rdf:about=""><dc:format>image/svg+xml</dc:format><dc:type
         rdf:resource="http://purl.org/dc/dcmitype/StillImage" /><dc:title /></cc:Work></rdf:RDF></metadata><defs
   id="defs6"><linearGradient
     id="linearGradient15296-8-2"><stop
       style="stop-color:#ff5959;stop-opacity:1;"
       offset="0"
       id="stop15298-6-3" /><stop
       style="stop-color:#df0000;stop-opacity:1;"
       offset="1"
       id="stop15300-9-0" /></linearGradient><linearGradient
     y2="155"
     x2="126"
     y1="118"
     x1="89"
     gradientTransform="matrix(2.3577008,0,0,2.3577008,-213.65994,-282.49748)"
     gradientUnits="userSpaceOnUse"
     id="linearGradient3283"
     xlink:href="#linearGradient15296-8-8"
     inkscape:collect="always" /><linearGradient
     id="linearGradient15296-8-8"><stop
       id="stop3914"
       offset="0"
       style="stop-color:#ef2c2c;stop-opacity:1;" /><stop
       style="stop-color:#e71616;stop-opacity:1;"
       offset="0"
       id="stop3916" /><stop
       style="stop-color:#df0000;stop-opacity:1;"
       offset="1"
       id="stop15300-9-7" /></linearGradient><linearGradient
     y2="155"
     x2="126"
     y1="118"
     x1="89"
     gradientUnits="userSpaceOnUse"
     id="linearGradient3321"
     xlink:href="#linearGradient15296-8-8-0"
     inkscape:collect="always" /><linearGradient
     id="linearGradient25099-7"><stop
       style="stop-color:#652f99;stop-opacity:1;"
       offset="0"
       id="stop25101-8" /><stop
       style="stop-color:#502679;stop-opacity:0.65178573;"
       offset="1"
       id="stop25103-4" /></linearGradient><linearGradient
     id="linearGradient21541-2"><stop
       style="stop-color:#263cce;stop-opacity:1;"
       offset="0"
       id="stop21543-99" /><stop
       style="stop-color:#263cce;stop-opacity:0;"
       offset="1"
       id="stop21545-5" /></linearGradient><linearGradient
     id="linearGradient20648-7"><stop
       style="stop-color:#00a000;stop-opacity:0.25892857;"
       offset="0"
       id="stop20650-1" /><stop
       style="stop-color:green;stop-opacity:1;"
       offset="1"
       id="stop20652-8" /></linearGradient><linearGradient
     inkscape:collect="always"
     id="linearGradient23319-5"><stop
       style="stop-color:white;stop-opacity:1;"
       offset="0"
       id="stop23321-43" /><stop
       style="stop-color:white;stop-opacity:0;"
       offset="1"
       id="stop23323-4" /></linearGradient><linearGradient
     id="linearGradient18870-5"><stop
       style="stop-color:#fff18d;stop-opacity:1;"
       offset="0"
       id="stop18872-4" /><stop
       style="stop-color:#ffcd01;stop-opacity:1;"
       offset="1"
       id="stop18874-9" /></linearGradient><linearGradient
     id="linearGradient17969-3"><stop
       style="stop-color:#ffb73d;stop-opacity:1;"
       offset="0"
       id="stop17971-9" /><stop
       style="stop-color:#ffa000;stop-opacity:1;"
       offset="1"
       id="stop17973-3" /></linearGradient><linearGradient
     y2="115.35966"
     x2="57.340927"
     y1="155"
     x1="126"
     gradientUnits="userSpaceOnUse"
     id="linearGradient3863"
     xlink:href="#linearGradient25099-7"
     inkscape:collect="always" /><linearGradient
     y2="155"
     x2="163"
     y1="155"
     x1="89"
     gradientUnits="userSpaceOnUse"
     id="linearGradient3861"
     xlink:href="#linearGradient21541-2"
     inkscape:collect="always" /><linearGradient
     y2="155"
     x2="126"
     y1="189.85078"
     x1="91.149223"
     gradientUnits="userSpaceOnUse"
     id="linearGradient3859"
     xlink:href="#linearGradient20648-7"
     inkscape:collect="always" /><linearGradient
     y2="121.01641"
     x2="92.016411"
     y1="178.80643"
     x1="149.80643"
     gradientUnits="userSpaceOnUse"
     id="linearGradient3857"
     xlink:href="#linearGradient23319-5"
     inkscape:collect="always" /><linearGradient
     y2="155"
     x2="126"
     y1="186.68582"
     x1="157.68582"
     gradientUnits="userSpaceOnUse"
     id="linearGradient3855"
     xlink:href="#linearGradient18870-5"
     inkscape:collect="always" /><linearGradient
     y2="155"
     x2="126.02959"
     y1="191.40311"
     x1="89.626488"
     gradientUnits="userSpaceOnUse"
     id="linearGradient3853"
     xlink:href="#linearGradient17969-3"
     inkscape:collect="always" /><linearGradient
     id="linearGradient15296-8-2-9"><stop
       style="stop-color:#ff5959;stop-opacity:1;"
       offset="0"
       id="stop15298-6-3-7" /><stop
       style="stop-color:#df0000;stop-opacity:1;"
       offset="1"
       id="stop15300-9-0-0" /></linearGradient><linearGradient
     y2="155"
     x2="126"
     y1="118"
     x1="89"
     gradientTransform="matrix(2.3577008,0,0,2.3577008,-215.44119,-284.2787)"
     gradientUnits="userSpaceOnUse"
     id="linearGradient3053"
     xlink:href="#linearGradient15296-8-2-9"
     inkscape:collect="always" /><linearGradient
     y2="155"
     x2="126"
     y1="118"
     x1="89"
     gradientUnits="userSpaceOnUse"
     id="linearGradient3321-2"
     xlink:href="#linearGradient15296-8-8-0"
     inkscape:collect="always" /><linearGradient
     id="linearGradient15296-8-8-0"><stop
       style="stop-color:#ff5959;stop-opacity:1;"
       offset="0"
       id="stop15298-6-2-6" /><stop
       style="stop-color:#df0000;stop-opacity:1;"
       offset="1"
       id="stop15300-9-7-7" /></linearGradient><linearGradient
     y2="155"
     x2="126"
     y1="118"
     x1="89"
     gradientUnits="userSpaceOnUse"
     id="linearGradient3086"
     xlink:href="#linearGradient15296-8-8-0"
     inkscape:collect="always" /><linearGradient
     inkscape:collect="always"
     xlink:href="#linearGradient15296-8-8"
     id="linearGradient3873"
     gradientUnits="userSpaceOnUse"
     x1="89"
     y1="118"
     x2="126"
     y2="155" /><linearGradient
     inkscape:collect="always"
     xlink:href="#linearGradient15296-8-8"
     id="linearGradient3918"
     gradientUnits="userSpaceOnUse"
     x1="89"
     y1="118"
     x2="126"
     y2="155" /></defs><sodipodi:namedview
   pagecolor="#ffffff"
   bordercolor="#666666"
   borderopacity="1"
   objecttolerance="10"
   gridtolerance="10"
   guidetolerance="10"
   inkscape:pageopacity="0"
   inkscape:pageshadow="2"
   inkscape:window-width="943"
   inkscape:window-height="615"
   id="namedview4"
   showgrid="false"
   inkscape:zoom="2.7571615"
   inkscape:cx="85.555637"
   inkscape:cy="121.15729"
   inkscape:window-x="0"
   inkscape:window-y="0"
   inkscape:window-maximized="0"
   inkscape:current-layer="g3053"
   units="mm" /><g
   inkscape:groupmode="layer"
   id="positionmarks"
   inkscape:label="position_marks"
   transform="translate(0,0.00502836)"
   style="display:inline"><path
     style="fill:none;stroke:#000000;stroke-width:0.2;stroke-linecap:square;stroke-linejoin:miter;stroke-miterlimit:4;stroke-opacity:1;stroke-dasharray:none"
     d="m 4.9,166.435 -4.8,0 0,-4.8"
     id="path3124"
     sodipodi:nodetypes="ccc"
     inkscape:connector-curvature="0" /><path
     style="fill:none;stroke:#000000;stroke-width:0.2;stroke-linecap:square;stroke-linejoin:miter;stroke-miterlimit:4;stroke-opacity:1;stroke-dasharray:none;display:inline"
     d="m 0.1,4.8949969 0,-4.8 4.8,0"
     id="path3124-7"
     sodipodi:nodetypes="ccc"
     inkscape:connector-curvature="0" /><path
     style="fill:none;stroke:#000000;stroke-width:0.2;stroke-linecap:square;stroke-linejoin:miter;stroke-miterlimit:4;stroke-opacity:1;stroke-dasharray:none;display:inline"
     d="m 161.64,0.094997 4.8,0 0,4.8"
     id="path3124-7-8"
     sodipodi:nodetypes="ccc"
     inkscape:connector-curvature="0" /><path
     style="fill:none;stroke:#000000;stroke-width:0.2;stroke-linecap:square;stroke-linejoin:miter;stroke-miterlimit:4;stroke-opacity:1;stroke-dasharray:none;display:inline"
     d="m 166.44,161.635 0,4.8 -4.8,0"
     id="path3124-7-8-6"
     sodipodi:nodetypes="ccc"
     inkscape:connector-curvature="0" /></g><g
   transform="translate(0,0.00502836)"
   style="display:inline"
   inkscape:label="section_01_RED+Bleed"
   id="g3908"
   inkscape:groupmode="layer"><path
     transform="matrix(-6.7482465,5.9172666,-5.9172666,-6.7482465,189.15537,-216.19104)"
     d="m 39.947275,-17.30826 c 0,5.014152 -4.064774,9.0789261 -9.078926,9.0789261 -5.014152,0 -9.078926,-4.0647741 -9.078926,-9.0789261 0,-5.014152 4.064774,-9.078926 9.078926,-9.078926 5.014152,0 9.078926,4.064774 9.078926,9.078926 z"
     sodipodi:ry="9.0789261"
     sodipodi:rx="9.0789261"
     sodipodi:cy="-17.30826"
     sodipodi:cx="30.868349"
     id="path3910"
     style="color:#000000;fill:url(#linearGradient3918);fill-opacity:1;fill-rule:nonzero;stroke:none;stroke-width:1.99997211;marker:none;visibility:visible;display:inline;overflow:visible;enable-background:accumulate"
     sodipodi:type="arc" /></g><g
   inkscape:groupmode="layer"
   id="layer4"
   inkscape:label="section_01_RED"
   style="display:none"
   transform="translate(0,0.00502836)"><path
     sodipodi:type="arc"
     style="fill:url(#linearGradient3321);fill-opacity:1;fill-rule:nonzero;stroke:none;display:inline"
     id="path11693-4"
     sodipodi:cx="126"
     sodipodi:cy="155"
     sodipodi:rx="37"
     sodipodi:ry="37"
     d="m 163,155 c 0,20.43454 -16.56546,37 -37,37 -20.43454,0 -37,-16.56546 -37,-37 0,-20.43453 16.56546,-36.99999 36.99999,-37 l 1e-5,37 z"
     transform="matrix(1.9647506,0,0,1.9647506,-164.14822,-221.5902)"
     inkscape:transform-center-x="-26.924317"
     inkscape:transform-center-y="83.220777"
     sodipodi:start="0"
     sodipodi:end="4.7123887" /></g><g
   inkscape:groupmode="layer"
   id="layer3"
   inkscape:label="section_01_RED+Bleed"
   style="display:none"
   transform="translate(0,0.00502836)"><path
     style="fill:url(#linearGradient3283);fill-opacity:1;fill-rule:nonzero;stroke:none;display:inline"
     d="m 83.28125,1.7812518 c -45.006274,0 -81.5,36.4937252 -81.5,81.5000002 0,45.006268 36.493726,81.468748 81.5,81.468748 45.00627,0 81.46875,-36.46248 81.46875,-81.468748 0,-0.113732 4.7e-4,-0.230127 0,-0.34375 l -81.34375,0 0,-81.1562502 c -0.04196,-6.34e-5 -0.08303,0 -0.125,0 z"
     id="path3062"
     inkscape:connector-curvature="0" /></g>       
       <g
   inkscape:groupmode="layer"
   id="section_02_ORANGE"
   inkscape:label="section_02_ORANGE"
   style="display:inline"
   transform="translate(0,0.00502836)"
   sodipodi:insensitive="true">
     <path
   sodipodi:type="arc"
   style="fill:url(#linearGradient3853);fill-opacity:1;fill-rule:nonzero;stroke:none;display:inline"
   id="path10806"
   sodipodi:cx="126"
   sodipodi:cy="155"
   sodipodi:rx="37"
   sodipodi:ry="37"
   d="m 163,155 c 0,20.43454 -16.56546,37 -37,37 -20.43454,0 -37,-16.56546 -37,-37 0,-20.43454 16.56546,-37 37,-37 0,0 0,0 0,0 l 0,37 z"
   sodipodi:start="0"
   sodipodi:end="4.712389"
   transform="matrix(0,1.6840723,-1.6840723,0,344.44157,-129.24695)"
   inkscape:transform-center-x="71.332124"
   inkscape:transform-center-y="23.078" />
       </g>
        <g
   inkscape:groupmode="layer"
   id="section_03_YELLOW"
   inkscape:label="section_03_YELLOW"
   style="display:inline"
   transform="translate(0,0.00502836)"
   sodipodi:insensitive="true">      
       <path
   sodipodi:type="arc"
   style="fill:url(#linearGradient3855);fill-opacity:1;fill-rule:nonzero;stroke:none;display:inline"
   id="path8149"
   sodipodi:cx="126"
   sodipodi:cy="155"
   sodipodi:rx="37"
   sodipodi:ry="37"
   d="m 163,155 c 0,20.43454 -16.56546,37 -37,37 -20.43454,0 -37,-16.56546 -37,-37 0,-20.43454 16.56546,-37 37,-37 0,0 0,0 0,0 l 0,37 z"
   sodipodi:start="0"
   sodipodi:end="4.712389"
   transform="matrix(-1.4033925,0,0,-1.4033925,260.23807,300.47206)" />
         </g>
        <g
   inkscape:groupmode="layer"
   id="section_04_WHITE"
   inkscape:label="section_04_WHITE"
   style="display:inline"
   transform="translate(0,0.00502836)"
   sodipodi:insensitive="true">     
       <path
   sodipodi:type="arc"
   style="fill:url(#linearGradient3857);fill-opacity:1;fill-rule:nonzero;stroke:none;display:inline"
   id="path13467"
   sodipodi:cx="126"
   sodipodi:cy="155"
   sodipodi:rx="37"
   sodipodi:ry="37"
   d="m 163,155 c 0,20.43454 -16.56546,37 -37,37 -20.43454,0 -37,-16.56546 -37,-37 0,-20.43454 16.56546,-37 37,-37 0,0 0,0 0,0 l 0,37 z"
   sodipodi:start="0"
   sodipodi:end="4.712389"
   transform="matrix(0,-1.1227135,1.1227135,0,-90.610349,224.40832)" />
       </g>
        <g
   inkscape:groupmode="layer"
   id="section_05_GREEN"
   inkscape:label="section_05_GREEN"
   style="display:inline"
   transform="translate(0,0.00502836)"
   sodipodi:insensitive="true">       
       <path
   sodipodi:type="arc"
   style="fill:url(#linearGradient3859);fill-opacity:1;fill-rule:nonzero;stroke:none;display:inline"
   id="path6377"
   sodipodi:cx="126"
   sodipodi:cy="155"
   sodipodi:rx="37"
   sodipodi:ry="37"
   d="m 163,155 c 0,20.43454 -16.56546,37 -37,37 -20.43454,0 -37,-16.56546 -37,-37 0,-20.43454 16.56546,-37 37,-37 0,0 0,0 0,0 l 0,37 z"
   sodipodi:start="0"
   sodipodi:end="4.712389"
   transform="matrix(0.84203581,0,0,0.84203581,-22.686043,-47.569425)" />
       </g>
        <g
   inkscape:groupmode="layer"
   id="section_06_BLUE"
   inkscape:label="section_06_BLUE"
   style="display:inline"
   transform="translate(0,0.00502836)"
   sodipodi:insensitive="true">       
       <path
   sodipodi:type="arc"
   style="fill:url(#linearGradient3861);fill-opacity:1;fill-rule:nonzero;stroke:none;display:inline"
   id="path3654"
   sodipodi:cx="126"
   sodipodi:cy="155"
   sodipodi:rx="37"
   sodipodi:ry="37"
   d="m 163,155 c 0,20.43454 -16.56546,37 -37,37 -20.43454,0 -37,-16.56546 -37,-37 0,-20.43454 16.56546,-37 37,-37 0,0 0,0 0,0 l 0,37 z"
   sodipodi:start="0"
   sodipodi:end="4.712389"
   transform="matrix(0,0.56135675,-0.56135675,0,170.42089,12.630522)" />
        </g>
        <g
   inkscape:groupmode="layer"
   id="section_07_PURPLE"
   inkscape:label="section_07_PURPLE"
   style="display:inline"
   transform="translate(0,0.00502836)"
   sodipodi:insensitive="true">      
       <path
   sodipodi:type="arc"
   style="fill:url(#linearGradient3863);fill-opacity:1;fill-rule:nonzero;stroke:none;display:inline"
   id="path3660"
   sodipodi:cx="126"
   sodipodi:cy="155"
   sodipodi:rx="37"
   sodipodi:ry="37"
   d="m 163,155 c 0,20.43454 -16.56546,37 -37,37 -20.43454,0 -37,-16.56546 -37,-37 0,-20.43454 16.56546,-37 37,-37 20.43454,0 37,16.56546 37,37 z"
   transform="matrix(-0.28067838,0,0,-0.28067838,118.77593,126.45144)" />
        </g>
       <g
   inkscape:groupmode="layer"
   id="abdeckung"
   inkscape:label="abdeckung_1"
   style="display:none"
   transform="translate(0,0.00502836)"><path
     style="color:#000000;fill:#00ff00;fill-opacity:1;fill-rule:nonzero;stroke:none;stroke-width:0.5;marker:none;visibility:visible;display:inline;overflow:visible;enable-background:accumulate"
     d="m -17.555985,-17.708656 0,216.025916 202.458575,0 0,-216.025916 -202.458575,0 z m 100.96635,27.955056 71.202665,0.524385 1.49312,72.171389 c 0,40.148756 -32.54701,72.695766 -72.695785,72.695766 -40.148769,0 -72.69577,-32.54701 -72.69577,-72.695766 0,-40.148763 32.547001,-72.695774 72.69577,-72.695774 z"
     id="rect2994"
     sodipodi:nodetypes="ccccccccssc"
     inkscape:connector-curvature="0" /><path
     style="color:#000000;fill:#ff0000;fill-opacity:1;fill-rule:nonzero;stroke:none;stroke-width:3;marker:none;visibility:visible;display:inline;overflow:visible;enable-background:accumulate"
     d="m 155.9053,83.26497 c 0,40.11675 -32.52106,72.6378 -72.637805,72.6378 -40.116749,0 -72.637789,-32.52105 -72.637789,-72.6378 0,-40.116752 32.52104,-72.637802 72.637789,-72.637802 40.116745,0 72.637805,32.52105 72.637805,72.637802 z"
     id="path3050"
     inkscape:connector-curvature="0" /></g><g
   transform="translate(0,0.00502836)"
   style="display:inline"
   inkscape:label="abdeckung_2"
   id="g3053"
   inkscape:groupmode="layer"
   sodipodi:insensitive="true"><path
     style="color:#000000;fill:#00ff00;fill-opacity:1;fill-rule:nonzero;stroke:none;stroke-width:0.5;marker:none;visibility:visible;display:inline;overflow:visible;enable-background:accumulate"
     d="m -17.5625,-17.71875 0,216.03125 202.46875,0 0,-216.03125 -202.46875,0 z M 83.28125,10.625 c 40.11674,0 72.625,32.539498 72.625,72.65625 0,40.11675 -32.50826,72.625 -72.625,72.625 -40.116749,0 -72.65625,-32.50825 -72.65625,-72.625 0,-40.116752 32.539501,-72.65625 72.65625,-72.65625 z"
     transform="translate(0,-0.00502836)"
     id="path3061"
     inkscape:connector-curvature="0" /><path
     style="color:#000000;fill:none;stroke:#ffff00;stroke-width:0.5;marker:none;visibility:visible;display:inline;overflow:visible;enable-background:accumulate"
     d="m 83.281603,17.713785 c 36.201497,0 65.537077,29.363769 65.537077,65.565281 0,36.201504 -29.33558,65.537074 -65.537077,65.537074 -36.201509,0 -65.565281,-29.33557 -65.565281,-65.537074 0,-36.201512 29.363772,-65.565281 65.565281,-65.565281 z"
     id="path3073"
     inkscape:connector-curvature="0" /></g></svg>